#!OML:ASF X:\für Bonn\!DataBase\2005_08_11_Bastian_Final\c3d\Bastian.ASF
:FULLY-SPECIFIED
:DEGREES
35
root 1.37874 22.687 23.2393 715.598 -5.03278 -4.15469
lowerback 11.6194 0.31902 -1.71696
upperback 7.42784 0.239417 -2.72131
thorax 1.25351 0.112093 -1.88448
lowerneck -10.7144 -4.92503 -8.88232
upperneck 2.80358 -6.20163 12.6798
head 3.2799 -2.70029 4.94224
rclavicle 5.1684e-015 7.95139e-015
rhumerus -49.9414 24.967 -91.0854
rradius 89.6793
rwrist 8.50251
rhand -19.2146 20.1506
rfingers 7.12502
rthumb 7.09803 -9.71042
lclavicle 5.1684e-015 7.95139e-015
lhumerus -37.4591 -3.86621 79.2469
lradius 116.364
lwrist -153.197
lhand -27.9235 9.26776
lfingers 7.12502
lthumb -1.31203 39.2435
rfemur -18.2247 -3.61611 28.8485
rtibia 55.5958
rfoot 4.5195 -16.9548
rtoes 38.6142
lfemur -17.9557 9.43309 -14.8192
ltibia 52.784
lfoot 18.7622 -15.3194
ltoes -31.8587
36
root 1.37061 22.7153 23.4271 715.884 -5.10212 -4.26508
lowerback 11.5546 0.352502 -1.74285
upperback 7.46788 0.28454 -2.74141
thorax 1.33173 0.133973 -1.89512
lowerneck -10.6578 -4.90479 -8.51918
upperneck 2.8573 -6.22175 12.5295
head 3.27185 -2.71266 4.83424
rclavicle 2.42517e-014 -3.49861e-014
rhumerus -49.7998 23.97 -91.4732
rradius 87.4776
rwrist 8.16377
rhand -19.0031 19.8656
rfingers 7.12502
rthumb 7.3022 -9.98839
lclavicle 2.42517e-014 -3.49861e-014
lhumerus -37.8894 -3.60462 79.6144
lradius 114.687
lwrist -153.75
lhand -27.0983 9.36375
lfingers 7.12502
lthumb -0.51505 39.3429
rfemur -18.5237 -3.99483 29.0543
rtibia 53.8899
rfoot 5.2457 -15.5742
rtoes 38.5904
lfemur -18.1939 9.11419 -14.7977
ltibia 51.2028
lfoot 17.6811 -14.7825
ltoes -31.3278
37
root 1.3627 22.7261 23.619 716.077 -5.18616 -4.45234
lowerback 11.5532 0.39827 -1.65902
upperback 7.51572 0.353821 -2.74718
thorax 1.38481 0.171488 -1.95538
lowerneck -10.6619 -4.90334 -8.15906
upperneck 3.05561 -6.27634 12.3915
head 3.32099 -2.73671 4.72653
rclavicle -2.74323e-014 -4.77083e-015
rhumerus -49.8229 22.703 -91.843
rradius 85.4073
rwrist 7.84978
rhand -18.7534 19.6552
rfingers 7.12502
rthumb 7.54322 -10.1903
lclavicle -2.74323e-014 -4.77083e-015
lhumerus -38.3271 -3.47629 79.8782
lradius 113.042
lwrist -154.318
lhand -26.0737 9.20188
lfingers 7.12502
lthumb 0.474596 39.1811
rfemur -18.6696 -4.34221 29.3261
rtibia 52.1703
rfoot 6.01754 -14.1669
rtoes 39.002
lfemur -18.3256 8.7924 -14.6715
ltibia 49.747
lfoot 16.5358 -14.1161
ltoes -30.7977
38
root 1.35605 22.722 23.8132 716.294 -5.26088 -4.7584
lowerback 11.5403 0.428889 -1.44553
upperback 7.5277 0.414242 -2.70028
thorax 1.40637 0.208063 -2.03262
lowerneck -10.2582 -4.88091 -7.90398
upperneck 2.73316 -6.27163 12.3332
head 3.14822 -2.7533 4.67471
rclavicle 3.97569e-015 -4.77083e-015
rhumerus -49.9665 21.4457 -92.1643
rradius 83.3573
rwrist 7.39805
rhand -18.5891 19.515
rfingers 7.12502
rthumb 7.70174 -10.3247
lclavicle 3.97569e-015 -4.77083e-015
lhumerus -38.7657 -3.2943 80.0874
lradius 111.211
lwrist -155.01
lhand -25.0789 9.40329
lfingers 7.12502
lthumb 1.43534 39.3782
rfemur -18.8416 -4.68388 29.7253
rtibia 50.4693
rfoot 6.87818 -12.7323
rtoes 38.9689
lfemur -18.5004 8.49791 -14.4072
ltibia 48.4339
lfoot 15.4701 -13.4384
ltoes -30.2242
39
root 1.34894 22.7025 24.0097 716.532 -5.29905 -5.0134
lowerback 11.543 0.444733 -1.30831
upperback 7.45131 0.445413 -2.62095
thorax 1.32509 0.226613 -2.03032
lowerneck -9.71536 -4.83061 -7.76844
upperneck 2.3797 -6.21734 12.2843
head 2.94262 -2.75172 4.65213
rclavicle 1.19271e-015 4.77083e-015
rhumerus -50.3136 20.2054 -92.4459
rradius 81.0735
rwrist 7.36112
rhand -18.9303 19.7975
rfingers 7.12502
rthumb 7.37244 -10.0541
lclavicle 1.19271e-015 4.77083e-015
lhumerus -39.3488 -3.00102 80.2615
lradius 109.228
lwrist -155.857
lhand -24.2522 9.1011
lfingers 7.12502
lthumb 2.23377 39.0692
rfemur -19.061 -4.97015 30.0469
rtibia 48.8168
rfoot 7.7117 -11.4976
rtoes 38.8509
lfemur -18.7245 8.18396 -14.2006
ltibia 47.2371
lfoot 14.5913 -12.735
ltoes -29.4453
40
root 1.34253 22.6715 24.2082 716.685 -5.32444 -5.18769
lowerback 11.6108 0.460611 -1.23234
upperback 7.39095 0.469676 -2.56259
thorax 1.2254 0.239972 -2.01543
lowerneck -8.83165 -4.77697 -7.68412
upperneck 1.52702 -6.1309 12.3094
head 2.53506 -2.75354 4.67269
rclavicle -1.59028e-015 3.97569e-014
rhumerus -50.6086 18.9529 -92.6581
rradius 78.6731
rwrist 7.49185
rhand -19.4405 20.2343
rfingers 7.12502
rthumb 6.87999 -9.63395
lclavicle -1.59028e-015 3.97569e-014
lhumerus -39.8941 -2.58107 80.3487
lradius 107.173
lwrist -156.836
lhand -23.7269 8.42019
lfingers 7.12502
lthumb 2.74107 38.3823
rfemur -19.1608 -5.13707 30.2298
rtibia 47.2272
rfoot 8.3659 -10.6266
rtoes 39.0257
lfemur -18.8627 7.88348 -14.0709
ltibia 46.1474
lfoot 13.9305 -11.8636
ltoes -28.9596
41
root 1.33568 22.6327 24.4072 716.707 -5.3348 -5.2494
lowerback 11.7215 0.457217 -1.28198
upperback 7.44432 0.458581 -2.52273
thorax 1.2208 0.231791 -1.94589
lowerneck -8.3111 -4.71193 -7.56363
upperneck 0.880441 -6.02809 12.31
head 2.24518 -2.73186 4.67366
rclavicle -7.95139e-015 2.54444e-014
rhumerus -50.6115 17.7824 -92.7568
rradius 76.3748
rwrist 7.32907
rhand -19.7246 20.4939
rfingers 7.12502
rthumb 6.60567 -9.38312
lclavicle -7.95139e-015 2.54444e-014
lhumerus -40.264 -2.02153 80.3219
lradius 105.057
lwrist -157.881
lhand -23.3943 7.88869
lfingers 7.12502
lthumb 3.06231 37.8464
rfemur -19.1166 -5.28002 30.2588
rtibia 45.731
rfoot 8.96751 -9.87637
rtoes 39.1338
lfemur -18.8588 7.55993 -14.0501
ltibia 45.1444
lfoot 13.4851 -10.8359
ltoes -28.5353
42
root 1.32796 22.5839 24.6051 716.799 -5.33581 -5.2804
lowerback 11.7444 0.453058 -1.34921
upperback 7.48557 0.447288 -2.4549
thorax 1.25033 0.222296 -1.83648
lowerneck -8.03549 -4.69338 -7.56523
upperneck 0.488661 -5.98535 12.3432
head 2.08179 -2.72679 4.69493
rclavicle -1.27222e-014 -3.81667e-014
rhumerus -50.561 16.5709 -92.6875
rradius 74.1936
rwrist 7.01052
rhand -19.8016 20.6813
rfingers 7.12502
rthumb 6.53133 -9.19794
lclavicle -1.27222e-014 -3.81667e-014
lhumerus -40.582 -1.56861 80.2811
lradius 102.889
lwrist -158.95
lhand -23.0826 7.51861
lfingers 7.12502
lthumb 3.36336 37.4718
rfemur -19.1936 -5.39472 30.2683
rtibia 44.3342
rfoot 9.57162 -9.08627
rtoes 38.8391
lfemur -18.9631 7.29286 -14.0596
ltibia 44.2373
lfoot 13.2286 -9.74635
ltoes -27.7805
43
root 1.32006 22.5219 24.8022 716.808 -5.33636 -5.37311
lowerback 11.8443 0.45287 -1.35963
upperback 7.54378 0.444715 -2.33455
thorax 1.25628 0.217898 -1.70597
lowerneck -7.90589 -4.70523 -7.62826
upperneck 0.281318 -5.98666 12.3969
head 2.00369 -2.73487 4.72594
rclavicle -7.15625e-015 -1.11319e-014
rhumerus -50.5619 15.2536 -92.5006
rradius 72.0514
rwrist 6.73361
rhand -19.778 20.8686
rfingers 7.12502
rthumb 6.55409 -9.00998
lclavicle -7.15625e-015 -1.11319e-014
lhumerus -40.8781 -1.09439 80.2311
lradius 100.753
lwrist -160.01
lhand -22.9489 7.20287
lfingers 7.12502
lthumb 3.49246 37.154
rfemur -19.2062 -5.47006 30.3422
rtibia 43.0821
rfoot 10.1676 -8.32659
rtoes 38.1976
lfemur -18.9692 7.06026 -13.9909
ltibia 43.3994
lfoot 13.0442 -8.70965
ltoes -27.049
44
root 1.31236 22.4477 24.9997 716.774 -5.38237 -5.57898
lowerback 11.9854 0.440288 -1.26365
upperback 7.61441 0.434929 -2.15661
thorax 1.25306 0.212133 -1.57498
lowerneck -7.99607 -4.72913 -7.75313
upperneck 0.260967 -6.00173 12.4309
head 2.01896 -2.73943 4.75462
rclavicle 7.95139e-016 4.77083e-015
rhumerus -50.6615 13.9939 -92.2528
rradius 70.0661
rwrist 6.53012
rhand -19.8285 20.7111
rfingers 7.12502
rthumb 6.50538 -9.16896
lclavicle 7.95139e-016 4.77083e-015
lhumerus -41.1903 -0.514491 80.1486
lradius 98.7113
lwrist -161.018
lhand -22.9083 6.95981
lfingers 7.12502
lthumb 3.53161 36.9103
rfemur -19.1937 -5.49287 30.53
rtibia 42.0113
rfoot 10.7684 -7.65539
rtoes 37.5641
lfemur -18.908 6.8431 -13.7794
ltibia 42.6308
lfoot 12.9338 -7.74278
ltoes -26.2701
45
root 1.30499 22.3663 25.1985 716.887 -5.42029 -5.63418
lowerback 11.9424 0.444206 -1.2951
upperback 7.61631 0.438591 -2.00969
thorax 1.27636 0.209489 -1.40449
lowerneck -8.20397 -4.75569 -7.82685
upperneck 0.411119 -6.03086 12.413
head 2.10152 -2.74475 4.75439
rclavicle 1.19271e-014 -4.77083e-015
rhumerus -50.8393 12.6827 -91.9403
rradius 68.1
rwrist 6.31755
rhand -20.0128 20.2725
rfingers 7.12502
rthumb 6.32745 -9.61299
lclavicle 1.19271e-014 -4.77083e-015
lhumerus -41.5556 0.0342117 80.045
lradius 96.6806
lwrist -161.938
lhand -22.9481 6.87499
lfingers 7.12502
lthumb 3.49324 36.8261
rfemur -19.3825 -5.4037 30.5461
rtibia 41.1513
rfoot 11.211 -7.19037
rtoes 37.0684
lfemur -19.0158 6.65795 -13.7647
ltibia 41.9104
lfoot 12.7733 -6.91386
ltoes -25.7763
